<svg width="102" height="102" viewBox="0 0 102 102" fill="none" xmlns="http://www.w3.org/2000/svg">
<circle cx="51.2772" cy="50.7831" r="50.4667" fill="#3883A2"/>
<path d="M65.5756 54.0189H49.4468L49.941 53.5437L54.1593 49.4879C55.863 50.3128 57.7402 50.7527 59.6477 50.7738C61.5677 50.7787 63.4517 50.2735 65.092 49.314C70.0799 46.4106 72.7526 39.6899 72.2416 31.3355C72.2176 30.9398 72.0433 30.5663 71.7518 30.286C71.4603 30.0057 71.0719 29.8381 70.6603 29.815C61.9713 29.3257 54.9815 31.8935 51.9618 36.6894C49.9936 39.8132 49.9431 43.586 51.7789 47.2031L48.7529 50.1126L46.1853 47.6439C47.447 44.9649 47.3566 42.1849 45.893 39.8637C43.6072 36.2264 38.3669 34.2874 31.8734 34.6534C31.4625 34.6769 31.0749 34.8444 30.7839 35.1243C30.4928 35.4041 30.3186 35.7768 30.2941 36.1718C29.9114 42.4133 31.9301 47.4518 35.7152 49.6516C36.9816 50.3951 38.4372 50.787 39.9209 50.7839C41.267 50.771 42.5947 50.4822 43.8154 49.9367L46.3725 52.4014L44.6902 54.0189H35.2947C34.8485 54.0189 34.4206 54.1893 34.1051 54.4926C33.7896 54.796 33.6124 55.2074 33.6124 55.6364C33.6124 56.0654 33.7896 56.4768 34.1051 56.7801C34.4206 57.0835 34.8485 57.2539 35.2947 57.2539H37.3113L40.0892 69.278C40.252 69.9981 40.6671 70.6427 41.265 71.1039C41.8629 71.565 42.6073 71.8148 43.3738 71.8114H57.4986C58.2651 71.8148 59.0095 71.565 59.6074 71.1039C60.2053 70.6427 60.6204 69.9981 60.7832 69.278L63.5611 57.2539H65.5756C66.0218 57.2539 66.4497 57.0835 66.7652 56.7801C67.0807 56.4768 67.2579 56.0654 67.2579 55.6364C67.2579 55.2074 67.0807 54.796 66.7652 54.4926C66.4497 54.1893 66.0218 54.0189 65.5756 54.0189ZM54.8511 38.3655C57.0507 34.8758 62.2615 32.9065 68.9402 32.9934C69.0264 39.425 66.9824 44.4332 63.3529 46.54C60.9325 47.9553 58.0117 47.8623 55.093 46.3014C53.4675 43.5051 53.3791 40.6927 54.8511 38.3655ZM42.888 46.7624C40.9534 47.7592 39.0377 47.8057 37.4564 46.8837C35.0381 45.4744 33.6439 42.1525 33.6124 37.8439C38.0936 37.8742 41.5506 39.2147 43.0142 41.5399C43.9731 43.0603 43.9163 44.9023 42.888 46.7624ZM57.4986 68.5764H43.3738L40.7621 57.2539H60.1082L57.4986 68.5764Z" fill="#1E1E1E"/>
</svg>
