<svg width="102" height="102" viewBox="0 0 102 102" fill="none" xmlns="http://www.w3.org/2000/svg">
<circle cx="50.8319" cy="50.7831" r="50.4667" fill="#3883A2"/>
<path d="M51.3194 32.4796C51.0056 32.3539 50.6554 32.3539 50.3416 32.4796L34.6549 38.7538L40.9737 41.2797L57.1494 34.8111L51.3194 32.4796ZM60.6873 36.2278L44.5117 42.6965L50.8305 45.2224L67.0061 38.7538L60.6873 36.2278ZM69.2298 40.6962L52.1447 47.5302V68.353L69.2298 61.519V40.6962ZM49.5163 68.3556V47.5276L32.4312 40.6962V61.5216L49.5163 68.3556ZM49.3665 30.0378C50.3063 29.6619 51.3547 29.6619 52.2946 30.0378L71.033 37.5342C71.2766 37.6318 71.4854 37.8001 71.6325 38.0175C71.7796 38.2349 71.8582 38.4913 71.8583 38.7538V61.5216C71.858 62.0468 71.7003 62.5599 71.4056 62.9947C71.1109 63.4295 70.6927 63.766 70.205 63.9608L51.3194 71.5151C51.0056 71.6408 50.6554 71.6408 50.3416 71.5151L31.4587 63.9608C30.9704 63.7664 30.5517 63.43 30.2565 62.9952C29.9613 62.5604 29.8033 62.0471 29.8027 61.5216V38.7538C29.8028 38.4913 29.8814 38.2349 30.0285 38.0175C30.1756 37.8001 30.3844 37.6318 30.6281 37.5342L49.3665 30.0378Z" fill="#1E1E1E"/>
</svg>
