<svg width="102" height="102" viewBox="0 0 102 102" fill="none" xmlns="http://www.w3.org/2000/svg">
<circle cx="51.3885" cy="50.7831" r="50.4667" fill="#3883A2"/>
<g clip-path="url(#clip0_1056_2992)">
<path d="M39.9631 33.2472C39.8079 33.0476 39.6121 32.8833 39.3885 32.7652C39.165 32.6472 38.9189 32.578 38.6665 32.5623C38.4142 32.5467 38.1614 32.5849 37.925 32.6744C37.6885 32.7639 37.4739 32.9028 37.2952 33.0817L34.5774 35.8021C33.3078 37.0743 32.8399 38.8748 33.3945 40.4545C35.6964 46.9931 39.4408 52.9295 44.35 57.8235C49.244 62.7326 55.1804 66.477 61.719 68.7789C63.2987 69.3335 65.0992 68.8657 66.3714 67.5961L69.0892 64.8783C69.2681 64.6996 69.4069 64.4849 69.4964 64.2485C69.586 64.0121 69.6242 63.7593 69.6085 63.507C69.5929 63.2546 69.5237 63.0085 69.4056 62.785C69.2875 62.5614 69.1232 62.3655 68.9236 62.2104L62.8597 57.4949C62.6465 57.3295 62.3984 57.2147 62.1344 57.1592C61.8703 57.1036 61.597 57.1088 61.3352 57.1742L55.5788 58.612C54.8105 58.804 54.0055 58.7938 53.2423 58.5824C52.479 58.371 51.7835 57.9655 51.2235 57.4055L44.7679 50.9474C44.2075 50.3876 43.8015 49.6922 43.5896 48.929C43.3777 48.1657 43.3671 47.3606 43.5588 46.592L44.9993 40.8356C45.0647 40.5738 45.0699 40.3006 45.0143 40.0365C44.9588 39.7724 44.844 39.5244 44.6786 39.3111L39.9631 33.2472ZM35.3107 31.0998C35.7707 30.6397 36.3233 30.2827 36.9318 30.0525C37.5403 29.8223 38.1908 29.7242 38.8402 29.7648C39.4895 29.8053 40.1228 29.9835 40.698 30.2875C41.2732 30.5916 41.7771 31.0145 42.1763 31.5282L46.8918 37.5895C47.7565 38.7013 48.0614 40.1496 47.7197 41.5164L46.2819 47.2728C46.2076 47.5709 46.2116 47.8832 46.2936 48.1794C46.3756 48.4755 46.5327 48.7454 46.7498 48.9629L53.208 55.421C53.4257 55.6385 53.6961 55.796 53.9927 55.878C54.2893 55.96 54.6022 55.9637 54.9007 55.8889L60.6544 54.4511C61.3289 54.2825 62.0329 54.2694 62.7133 54.4128C63.3936 54.5563 64.0324 54.8525 64.5814 55.2791L70.6426 59.9946C72.8216 61.6899 73.0214 64.9098 71.0711 66.8575L68.3532 69.5754C66.4082 71.5204 63.5011 72.3747 60.7911 71.4205C53.8551 68.9801 47.5575 65.0093 42.3655 59.8027C37.1593 54.6115 33.1885 48.3149 30.7477 41.3797C29.7962 38.6724 30.6504 35.7627 32.5955 33.8176L35.3133 31.0998H35.3107ZM59.2719 31.0709C59.2719 30.7223 59.4103 30.388 59.6568 30.1416C59.9032 29.8951 60.2375 29.7566 60.5861 29.7566H71.1C71.4485 29.7566 71.7828 29.8951 72.0293 30.1416C72.2757 30.388 72.4142 30.7223 72.4142 31.0709V41.5848C72.4142 41.9333 72.2757 42.2676 72.0293 42.5141C71.7828 42.7605 71.4485 42.899 71.1 42.899C70.7514 42.899 70.4171 42.7605 70.1707 42.5141C69.9242 42.2676 69.7857 41.9333 69.7857 41.5848V34.2434L58.8881 45.1437C58.6413 45.3905 58.3066 45.5291 57.9576 45.5291C57.6086 45.5291 57.2739 45.3905 57.0271 45.1437C56.7804 44.8969 56.6417 44.5622 56.6417 44.2132C56.6417 43.8642 56.7804 43.5295 57.0271 43.2828L67.9274 32.3851H60.5861C60.2375 32.3851 59.9032 32.2466 59.6568 32.0002C59.4103 31.7537 59.2719 31.4194 59.2719 31.0709Z" fill="#1E1E1E"/>
</g>
<defs>
<clipPath id="clip0_1056_2992">
<rect width="42.0556" height="42.0556" fill="white" transform="translate(30.3594 29.7559)"/>
</clipPath>
</defs>
</svg>
