<svg width="105" height="49" viewBox="0 0 105 49" fill="none" xmlns="http://www.w3.org/2000/svg">
<path d="M0.975 30.575C1.54167 30.125 1.8 29.9167 1.75 29.95C3.38333 28.6 4.66667 27.4917 5.6 26.625C6.55 25.7583 7.35 24.85 8 23.9C8.65 22.95 8.975 22.025 8.975 21.125C8.975 20.4417 8.81667 19.9083 8.5 19.525C8.18333 19.1417 7.70833 18.95 7.075 18.95C6.44167 18.95 5.94167 19.1917 5.575 19.675C5.225 20.1417 5.05 20.8083 5.05 21.675H0.925C0.958333 20.2583 1.25833 19.075 1.825 18.125C2.40833 17.175 3.16667 16.475 4.1 16.025C5.05 15.575 6.1 15.35 7.25 15.35C9.23333 15.35 10.725 15.8583 11.725 16.875C12.7417 17.8917 13.25 19.2167 13.25 20.85C13.25 22.6333 12.6417 24.2917 11.425 25.825C10.2083 27.3417 8.65833 28.825 6.775 30.275H13.525V33.75H0.975V30.575ZM15.2572 30.575C15.8239 30.125 16.0822 29.9167 16.0322 29.95C17.6656 28.6 18.9489 27.4917 19.8822 26.625C20.8322 25.7583 21.6322 24.85 22.2822 23.9C22.9322 22.95 23.2572 22.025 23.2572 21.125C23.2572 20.4417 23.0989 19.9083 22.7822 19.525C22.4656 19.1417 21.9906 18.95 21.3572 18.95C20.7239 18.95 20.2239 19.1917 19.8572 19.675C19.5072 20.1417 19.3322 20.8083 19.3322 21.675H15.2072C15.2406 20.2583 15.5406 19.075 16.1072 18.125C16.6906 17.175 17.4489 16.475 18.3822 16.025C19.3322 15.575 20.3822 15.35 21.5322 15.35C23.5156 15.35 25.0072 15.8583 26.0072 16.875C27.0239 17.8917 27.5322 19.2167 27.5322 20.85C27.5322 22.6333 26.9239 24.2917 25.7072 25.825C24.4906 27.3417 22.9406 28.825 21.0572 30.275H27.8072V33.75H15.2572V30.575ZM29.6895 24.625C29.6895 21.7583 30.2395 19.5 31.3395 17.85C32.4561 16.2 34.2478 15.375 36.7145 15.375C39.1811 15.375 40.9645 16.2 42.0645 17.85C43.1811 19.5 43.7395 21.7583 43.7395 24.625C43.7395 27.525 43.1811 29.8 42.0645 31.45C40.9645 33.1 39.1811 33.925 36.7145 33.925C34.2478 33.925 32.4561 33.1 31.3395 31.45C30.2395 29.8 29.6895 27.525 29.6895 24.625ZM39.5395 24.625C39.5395 22.9417 39.3561 21.65 38.9895 20.75C38.6228 19.8333 37.8645 19.375 36.7145 19.375C35.5645 19.375 34.8061 19.8333 34.4395 20.75C34.0728 21.65 33.8895 22.9417 33.8895 24.625C33.8895 25.7583 33.9561 26.7 34.0895 27.45C34.2228 28.1833 34.4895 28.7833 34.8895 29.25C35.3061 29.7 35.9145 29.925 36.7145 29.925C37.5145 29.925 38.1145 29.7 38.5145 29.25C38.9311 28.7833 39.2061 28.1833 39.3395 27.45C39.4728 26.7 39.5395 25.7583 39.5395 24.625ZM51.2959 24.625C51.2959 21.7583 51.8459 19.5 52.9459 17.85C54.0626 16.2 55.8542 15.375 58.3209 15.375C60.7876 15.375 62.5709 16.2 63.6709 17.85C64.7876 19.5 65.3459 21.7583 65.3459 24.625C65.3459 27.525 64.7876 29.8 63.6709 31.45C62.5709 33.1 60.7876 33.925 58.3209 33.925C55.8542 33.925 54.0626 33.1 52.9459 31.45C51.8459 29.8 51.2959 27.525 51.2959 24.625ZM61.1459 24.625C61.1459 22.9417 60.9626 21.65 60.5959 20.75C60.2292 19.8333 59.4709 19.375 58.3209 19.375C57.1709 19.375 56.4126 19.8333 56.0459 20.75C55.6792 21.65 55.4959 22.9417 55.4959 24.625C55.4959 25.7583 55.5626 26.7 55.6959 27.45C55.8292 28.1833 56.0959 28.7833 56.4959 29.25C56.9126 29.7 57.5209 29.925 58.3209 29.925C59.1209 29.925 59.7209 29.7 60.1209 29.25C60.5376 28.7833 60.8126 28.1833 60.9459 27.45C61.0792 26.7 61.1459 25.7583 61.1459 24.625ZM67.6045 24.625C67.6045 21.7583 68.1545 19.5 69.2545 17.85C70.3712 16.2 72.1628 15.375 74.6295 15.375C77.0962 15.375 78.8795 16.2 79.9795 17.85C81.0962 19.5 81.6545 21.7583 81.6545 24.625C81.6545 27.525 81.0962 29.8 79.9795 31.45C78.8795 33.1 77.0962 33.925 74.6295 33.925C72.1628 33.925 70.3712 33.1 69.2545 31.45C68.1545 29.8 67.6045 27.525 67.6045 24.625ZM77.4545 24.625C77.4545 22.9417 77.2712 21.65 76.9045 20.75C76.5378 19.8333 75.7795 19.375 74.6295 19.375C73.4795 19.375 72.7212 19.8333 72.3545 20.75C71.9878 21.65 71.8045 22.9417 71.8045 24.625C71.8045 25.7583 71.8712 26.7 72.0045 27.45C72.1378 28.1833 72.4045 28.7833 72.8045 29.25C73.2212 29.7 73.8295 29.925 74.6295 29.925C75.4295 29.925 76.0295 29.7 76.4295 29.25C76.8462 28.7833 77.1212 28.1833 77.2545 27.45C77.3878 26.7 77.4545 25.7583 77.4545 24.625ZM83.9131 24.625C83.9131 21.7583 84.4631 19.5 85.5631 17.85C86.6798 16.2 88.4714 15.375 90.9381 15.375C93.4048 15.375 95.1881 16.2 96.2881 17.85C97.4048 19.5 97.9631 21.7583 97.9631 24.625C97.9631 27.525 97.4048 29.8 96.2881 31.45C95.1881 33.1 93.4048 33.925 90.9381 33.925C88.4714 33.925 86.6798 33.1 85.5631 31.45C84.4631 29.8 83.9131 27.525 83.9131 24.625ZM93.7631 24.625C93.7631 22.9417 93.5798 21.65 93.2131 20.75C92.8464 19.8333 92.0881 19.375 90.9381 19.375C89.7881 19.375 89.0298 19.8333 88.6631 20.75C88.2964 21.65 88.1131 22.9417 88.1131 24.625C88.1131 25.7583 88.1798 26.7 88.3131 27.45C88.4464 28.1833 88.7131 28.7833 89.1131 29.25C89.5298 29.7 90.1381 29.925 90.9381 29.925C91.7381 29.925 92.3381 29.7 92.7381 29.25C93.1548 28.7833 93.4298 28.1833 93.5631 27.45C93.6964 26.7 93.7631 25.7583 93.7631 24.625Z" fill="#070707" fill-opacity="0.5"/>
<line x1="0.990385" y1="24" x2="104.99" y2="23" stroke="#FF0404" stroke-width="2"/>
</svg>
