<svg width="21" height="21" viewBox="0 0 21 21" fill="none" xmlns="http://www.w3.org/2000/svg">
<g clip-path="url(#clip0_1056_3236)">
<path d="M19.009 6.94299C19.009 6.34106 18.9292 5.80974 18.7694 5.34901C18.6096 4.88828 18.4053 4.52229 18.1563 4.25106C17.9074 3.97982 17.6046 3.75875 17.2479 3.58783C16.8912 3.41691 16.5419 3.30173 16.2001 3.24228C15.8582 3.18283 15.4941 3.15311 15.1077 3.15311C14.7213 3.15311 14.3051 3.24786 13.8593 3.43735C13.4134 3.62684 13.0028 3.86464 12.6276 4.15074C12.2523 4.43684 11.9309 4.70436 11.6634 4.9533C11.3958 5.20224 11.1729 5.43075 10.9946 5.63882C10.8608 5.80231 10.6787 5.88405 10.4484 5.88405C10.218 5.88405 10.0359 5.80231 9.90219 5.63882C9.72384 5.43075 9.50091 5.20224 9.23339 4.9533C8.96587 4.70436 8.64447 4.43684 8.2692 4.15074C7.89392 3.86464 7.48335 3.62684 7.03749 3.43735C6.59162 3.24786 6.17548 3.15311 5.78906 3.15311C5.40264 3.15311 5.03851 3.18283 4.69668 3.24228C4.35485 3.30173 4.00559 3.41691 3.64889 3.58783C3.2922 3.75875 2.98938 3.97982 2.74044 4.25106C2.49149 4.52229 2.28714 4.88828 2.12737 5.34901C1.9676 5.80974 1.88771 6.34106 1.88771 6.94299C1.88771 8.19142 2.58253 9.51044 3.97215 10.9001L10.4484 17.1422L16.9135 10.9112C18.3105 9.51416 19.009 8.19142 19.009 6.94299ZM20.4358 6.94299C20.4358 8.58527 19.5849 10.2573 17.8832 11.959L10.9388 18.647C10.8051 18.7808 10.6416 18.8477 10.4484 18.8477C10.2552 18.8477 10.0917 18.7808 9.95792 18.647L3.00238 11.9367C2.92807 11.8773 2.82589 11.7807 2.69585 11.6469C2.5658 11.5131 2.35959 11.2698 2.07721 10.9168C1.79483 10.5638 1.54217 10.2015 1.31923 9.82998C1.0963 9.45842 0.897516 9.00884 0.722885 8.48123C0.548253 7.95362 0.460938 7.44087 0.460938 6.94299C0.460938 5.30814 0.932814 4.02998 1.87657 3.10852C2.82032 2.18706 4.12448 1.72633 5.78906 1.72633C6.24979 1.72633 6.71981 1.80622 7.19911 1.96599C7.67842 2.12576 8.12429 2.34126 8.53672 2.61249C8.94915 2.88373 9.30398 3.13825 9.60123 3.37604C9.89847 3.61384 10.1809 3.8665 10.4484 4.13402C10.7159 3.8665 10.9983 3.61384 11.2955 3.37604C11.5928 3.13825 11.9476 2.88373 12.36 2.61249C12.7725 2.34126 13.2183 2.12576 13.6976 1.96599C14.1769 1.80622 14.647 1.72633 15.1077 1.72633C16.7723 1.72633 18.0764 2.18706 19.0202 3.10852C19.9639 4.02998 20.4358 5.30814 20.4358 6.94299Z" fill="#1B7FED"/>
</g>
<defs>
<clipPath id="clip0_1056_3236">
<rect width="19.9749" height="19.9749" fill="white" transform="matrix(1 0 0 -1 0.460938 20.2734)"/>
</clipPath>
</defs>
</svg>
