<svg width="26" height="26" viewBox="0 0 26 26" fill="none" xmlns="http://www.w3.org/2000/svg">
<path d="M13.6677 10.514H18.399L17.8733 12.6168H13.6677V22.0793H11.5649V12.6168H7.35938V10.514H11.5649V8.54582C11.5649 6.67119 11.7605 5.99094 12.1264 5.30544C12.4849 4.62814 13.0388 4.07427 13.7161 3.71574C14.4016 3.34986 15.0818 3.1543 16.9565 3.1543C17.5053 3.1543 17.9868 3.20687 18.399 3.31201V5.25707H16.9565C15.5644 5.25707 15.1407 5.33908 14.7086 5.57039C14.389 5.74071 14.1513 5.97833 13.981 6.29795C13.7497 6.73007 13.6677 7.15378 13.6677 8.54582V10.514Z" fill="white"/>
</svg>
