<svg width="26" height="26" viewBox="0 0 26 26" fill="none" xmlns="http://www.w3.org/2000/svg">
<path d="M12.4915 9.5152C13.4556 8.53005 14.711 7.88555 16.1714 7.88555C17.705 7.88555 19.1758 8.49479 20.2603 9.57924C21.3448 10.6637 21.954 12.1345 21.954 13.6682V21.5536H19.8512V13.6682C19.8512 12.6922 19.4635 11.7562 18.7734 11.0661C18.0833 10.376 17.1473 9.98832 16.1714 9.98832C15.1954 9.98832 14.2594 10.376 13.5693 11.0661C12.8792 11.7562 12.4915 12.6922 12.4915 13.6682V21.5536H10.3887V8.41124H12.4915V9.5152ZM5.13177 6.30846C4.7135 6.30846 4.31237 6.14231 4.0166 5.84655C3.72084 5.55079 3.55469 5.14965 3.55469 4.73138C3.55469 4.31311 3.72084 3.91197 4.0166 3.61621C4.31237 3.32045 4.7135 3.1543 5.13177 3.1543C5.55004 3.1543 5.95118 3.32045 6.24694 3.61621C6.5427 3.91197 6.70885 4.31311 6.70885 4.73138C6.70885 5.14965 6.5427 5.55079 6.24694 5.84655C5.95118 6.14231 5.55004 6.30846 5.13177 6.30846ZM4.08038 8.41124H6.18316V21.5536H4.08038V8.41124Z" fill="white"/>
</svg>
