<svg width="27" height="26" viewBox="0 0 27 26" fill="none" xmlns="http://www.w3.org/2000/svg">
<path d="M18.8073 3.1543H8.29345C7.17806 3.1543 6.10836 3.59738 5.31967 4.38608C4.53097 5.17477 4.08789 6.24447 4.08789 7.35985V17.8737C4.08789 18.9891 4.53097 20.0588 5.31967 20.8475C6.10836 21.6362 7.17806 22.0793 8.29345 22.0793H18.8073C19.9227 22.0793 20.9924 21.6362 21.7811 20.8475C22.5698 20.0588 23.0129 18.9891 23.0129 17.8737V7.35985C23.0129 6.24447 22.5698 5.17477 21.7811 4.38608C20.9924 3.59738 19.9227 3.1543 18.8073 3.1543Z" stroke="white" stroke-width="1.57708" stroke-linejoin="round"/>
<path d="M13.5493 16.8222C14.6647 16.8222 15.7344 16.3792 16.5231 15.5905C17.3118 14.8018 17.7549 13.7321 17.7549 12.6167C17.7549 11.5013 17.3118 10.4316 16.5231 9.64291C15.7344 8.85422 14.6647 8.41113 13.5493 8.41113C12.4339 8.41113 11.3642 8.85422 10.5755 9.64291C9.78683 10.4316 9.34375 11.5013 9.34375 12.6167C9.34375 13.7321 9.78683 14.8018 10.5755 15.5905C11.3642 16.3792 12.4339 16.8222 13.5493 16.8222V16.8222Z" stroke="white" stroke-width="1.57708" stroke-linejoin="round"/>
<path d="M19.3326 7.885C19.6115 7.885 19.8789 7.77423 20.0761 7.57706C20.2733 7.37989 20.384 7.11246 20.384 6.83362C20.384 6.55477 20.2733 6.28735 20.0761 6.09017C19.8789 5.893 19.6115 5.78223 19.3326 5.78223C19.0538 5.78223 18.7864 5.893 18.5892 6.09017C18.392 6.28735 18.2812 6.55477 18.2812 6.83362C18.2812 7.11246 18.392 7.37989 18.5892 7.57706C18.7864 7.77423 19.0538 7.885 19.3326 7.885Z" fill="white"/>
</svg>
