<svg width="52" height="51" viewBox="0 0 52 51" fill="none" xmlns="http://www.w3.org/2000/svg">
<rect x="1.20703" y="0.800781" width="49.4" height="49.4" rx="12.1" fill="white" stroke="black"/>
<g clip-path="url(#clip0_705_9)">
<rect width="21" height="21" transform="translate(15.4102 15)" fill="white"/>
<path d="M30.8208 28.576C32.0916 26.8418 32.6609 24.6917 32.4145 22.5558C32.1682 20.4199 31.1245 18.4558 29.4922 17.0564C27.8599 15.657 25.7594 14.9255 23.611 15.0083C21.4625 15.0911 19.4246 15.982 17.9048 17.5029C16.385 19.0237 15.4955 21.0623 15.4143 23.2108C15.3331 25.3593 16.066 27.4593 17.4666 29.0906C18.8672 30.7219 20.832 31.7642 22.9681 32.009C25.1042 32.2538 27.2539 31.683 28.9872 30.4109H28.9859C29.0253 30.4634 29.0673 30.5133 29.1145 30.5618L34.1676 35.615C34.4137 35.8612 34.7476 35.9997 35.0958 35.9998C35.4439 35.9999 35.7779 35.8617 36.0242 35.6156C36.2704 35.3695 36.4089 35.0357 36.409 34.6875C36.4091 34.3393 36.2709 34.0054 36.0248 33.7591L30.9717 28.706C30.9248 28.6585 30.8743 28.6159 30.8208 28.576ZM31.1594 23.5308C31.1594 24.4788 30.9727 25.4174 30.6099 26.2933C30.2471 27.1691 29.7154 27.9649 29.0451 28.6352C28.3747 29.3055 27.5789 29.8373 26.7031 30.2C25.8273 30.5628 24.8886 30.7495 23.9406 30.7495C22.9927 30.7495 22.054 30.5628 21.1781 30.2C20.3023 29.8373 19.5065 29.3055 18.8362 28.6352C18.1659 27.9649 17.6342 27.1691 17.2714 26.2933C16.9086 25.4174 16.7219 24.4788 16.7219 23.5308C16.7219 21.6162 17.4824 19.7801 18.8362 18.4263C20.19 17.0726 22.0261 16.312 23.9406 16.312C25.8552 16.312 27.6913 17.0726 29.0451 18.4263C30.3988 19.7801 31.1594 21.6162 31.1594 23.5308Z" fill="#1E1E1E"/>
</g>
<defs>
<clipPath id="clip0_705_9">
<rect width="21" height="21" fill="white" transform="translate(15.4102 15)"/>
</clipPath>
</defs>
</svg>
