<svg width="26" height="26" viewBox="0 0 26 26" fill="none" xmlns="http://www.w3.org/2000/svg">
<g clip-path="url(#clip0_782_3062)">
<path d="M14.0357 9.30064L14.0357 9.30059C14.0508 8.47408 14.3898 7.68654 14.9797 7.10743C15.5696 6.52832 16.3632 6.20394 17.1899 6.20407L14.0357 9.30064ZM14.0357 9.30064L14.0063 10.9564M14.0357 9.30064L14.0063 10.9564M5.47016 8.20936L5.60884 8.3249C7.58207 9.96891 9.63334 10.9531 11.7694 11.2443C11.7694 11.2443 11.7694 11.2443 11.7694 11.2443L13.4105 11.4672C13.4839 11.4771 13.5586 11.4714 13.6297 11.4504C13.7008 11.4293 13.7666 11.3936 13.8229 11.3453C13.8791 11.2971 13.9245 11.2375 13.9562 11.1705C13.9877 11.1035 14.0048 11.0306 14.0063 10.9566C14.0063 10.9565 14.0063 10.9565 14.0063 10.9564M5.47016 8.20936L14.1114 10.9584L14.0063 10.9564M5.47016 8.20936L5.43807 8.38699M5.47016 8.20936L5.43807 8.38699M5.43807 8.38699C5.12073 10.1435 5.2706 11.6393 5.87998 12.9335C6.48903 14.2269 7.55208 15.3083 9.04242 16.2455L9.04244 16.2455M5.43807 8.38699L9.04244 16.2455M9.04244 16.2455L10.8792 17.4L10.9292 17.3204M9.04244 16.2455L10.9292 17.3204M10.9292 17.3204L10.8792 17.4C10.9519 17.4457 11.0124 17.5085 11.0552 17.583C11.098 17.6574 11.122 17.7412 11.1249 17.8271C11.1278 17.9129 11.1097 17.9982 11.0721 18.0754C11.0344 18.1526 10.9784 18.2194 10.909 18.27L10.9089 18.2701M10.9292 17.3204L10.9089 18.2701M10.9089 18.2701L9.23508 19.4928L9 19.6646M10.9089 18.2701L9 19.6646M9 19.6646L9.29056 19.6827M9 19.6646L9.29056 19.6827M9.29056 19.6827C10.2927 19.7451 11.2473 19.7009 12.0428 19.5431L12.0429 19.5431M9.29056 19.6827L12.0429 19.5431M12.0429 19.5431C14.5442 19.0437 16.6321 17.8515 18.0943 16.0028M12.0429 19.5431L18.0943 16.0028M18.0943 16.0028C19.5562 14.1543 20.3861 11.6577 20.3861 8.56023M18.0943 16.0028L20.3861 8.56023M20.3861 8.56023C20.3861 8.40714 20.3088 8.18431 20.1748 7.9451M20.3861 8.56023L20.1748 7.9451M20.1748 7.9451C20.0383 7.70157 19.8357 7.42767 19.5685 7.17051M20.1748 7.9451L19.5685 7.17051M19.5685 7.17051C19.0337 6.65574 18.2359 6.20407 17.1899 6.20407L19.5685 7.17051ZM22.0187 5.82255C22.4225 5.76521 22.8921 5.61757 23.5097 5.26809C23.1881 6.82857 23.001 7.5355 22.2988 8.49828L22.2786 8.52596V8.56023C22.2786 12.5547 21.0516 15.5146 19.2094 17.5995C17.3661 19.6856 14.9006 20.9025 12.4139 21.3987C10.7136 21.7379 8.62043 21.6295 6.77211 21.2487C5.84867 21.0585 4.98931 20.8008 4.27338 20.4989C3.66089 20.2406 3.15919 19.9523 2.81167 19.6504C3.26491 19.606 4.05424 19.5064 4.92927 19.3028C5.98054 19.0582 7.1667 18.6611 8.04075 18.0214L8.16284 17.932L8.03652 17.8487C7.99258 17.8198 7.94478 17.7886 7.89351 17.7552C7.0963 17.2358 5.45793 16.1684 4.39085 14.2107C3.27173 12.1575 2.77277 9.10765 4.58227 4.65288C6.33312 6.66897 8.11387 8.05317 9.92482 8.79628L9.92483 8.79629C10.5363 9.0471 10.921 9.17156 11.2252 9.24271C11.4555 9.29658 11.6397 9.3197 11.8349 9.3442C11.8965 9.35193 11.9592 9.3598 12.0248 9.36882L12.3348 9.41144L12.1442 9.22102C12.1705 8.24388 12.4801 7.29506 13.0357 6.49008C13.5998 5.67288 14.3924 5.04024 15.3143 4.67137C16.2362 4.30249 17.2464 4.21378 18.2185 4.41633C19.1906 4.61889 20.0813 5.10371 20.7792 5.81009L20.8103 5.84165L20.8547 5.84134C20.9627 5.84058 21.0718 5.84428 21.1836 5.84807C21.441 5.85679 21.7128 5.866 22.0187 5.82255Z" fill="white" stroke="black" stroke-width="0.210278"/>
</g>
<defs>
<clipPath id="clip0_782_3062">
<rect width="25.2333" height="25.2333" fill="white" transform="translate(0.466797)"/>
</clipPath>
</defs>
</svg>
