<svg width="85" height="88" viewBox="0 0 85 88" fill="none" xmlns="http://www.w3.org/2000/svg">
<path d="M72.5819 12.7933C68.6682 8.7205 64.0067 5.49174 58.8694 3.29531C53.7321 1.09888 48.2218 -0.0212344 42.6601 0.000304837C19.3555 0.000304837 0.362883 19.5692 0.341537 43.5932C0.341537 51.2876 2.2947 58.7731 5.98223 65.4006L0 88L22.4347 81.939C28.6383 85.4273 35.5932 87.2524 42.6601 87.2465H42.6814C65.9913 87.2465 84.9786 67.6776 85 43.6317C85.0047 37.901 83.9095 32.226 81.7774 26.9334C79.6452 21.6408 76.5236 16.8352 72.5819 12.7933ZM42.6601 79.8655C36.3586 79.8604 30.1738 78.113 24.7507 74.8055L23.47 74.0135L10.1607 77.6105L13.7148 64.2291L12.8823 62.8486C9.35921 57.0754 7.49592 50.3913 7.50847 43.5712C7.50847 23.6282 23.2885 7.35928 42.6814 7.35928C47.3015 7.35074 51.8775 8.28478 56.1456 10.1076C60.4137 11.9304 64.2895 14.6058 67.5496 17.9797C70.8203 21.341 73.4133 25.3362 75.1792 29.735C76.945 34.1338 77.8488 38.8493 77.8384 43.6097C77.817 63.6241 62.037 79.8655 42.6601 79.8655ZM61.9516 52.7286C60.9003 52.1841 55.7079 49.5496 54.7313 49.1756C53.76 48.8181 53.0503 48.6311 52.3565 49.7201C51.6468 50.8036 49.6189 53.2731 49.0105 53.9826C48.4022 54.7141 47.7725 54.7966 46.7158 54.2576C45.6645 53.7076 42.2545 52.5636 38.2201 48.8401C35.0716 45.9526 32.9636 42.3777 32.3339 41.2942C31.7256 40.2052 32.2752 39.6222 32.8035 39.0777C33.2678 38.5937 33.8548 37.8017 34.3832 37.1747C34.9168 36.5477 35.0929 36.0857 35.4398 35.3597C35.7867 34.6227 35.6212 33.9957 35.3597 33.4512C35.0929 32.9067 32.985 27.5332 32.0938 25.3662C31.2399 23.2267 30.3701 23.5237 29.719 23.4962C29.1107 23.4577 28.4009 23.4577 27.6912 23.4577C27.1552 23.4718 26.6279 23.5997 26.1422 23.8334C25.6564 24.0672 25.2227 24.4018 24.8682 24.8162C23.8969 25.9052 21.1806 28.5397 21.1806 33.9132C21.1806 39.2867 24.9695 44.4511 25.5032 45.1826C26.0262 45.9141 32.9423 56.9086 43.5566 61.6386C46.0648 62.7661 48.0393 63.4316 49.5815 63.9376C52.1164 64.7736 54.4058 64.6471 56.2308 64.3776C58.2587 64.0586 62.4799 61.7376 63.3711 59.1911C64.2463 56.6391 64.2463 54.4611 63.9795 54.0046C63.718 53.5426 63.0082 53.2731 61.9516 52.7286Z" fill="#18E325"/>
</svg>
